<svg xmlns="http://www.w3.org/2000/svg" width="48" height="48" viewBox="0 0 48 48">
    <g fill="none" fill-rule="evenodd">
        <rect width="40" height="24" x="4" y="12" fill="#FECA01" rx="1.5"/>
        <path fill="#414148" fill-rule="nonzero" d="M17.082 29.999c.812.016 1.556-.142 2.23-.473.675-.331 1.22-.804 1.634-1.419.415-.614.657-1.306.725-2.075.092-1.16-.155-2.094-.742-2.801-.586-.708-1.414-1.062-2.483-1.062-.692 0-1.293.15-1.801.448l.823-2.524h4.795l.326-1.932h-6.828L14.08 24.06l1.981.473c.515-.428 1.075-.636 1.682-.625.543.01.947.192 1.213.545.266.352.365.833.296 1.442-.074.684-.296 1.23-.665 1.635-.368.406-.839.601-1.41.585-.441-.01-.79-.15-1.047-.42-.258-.27-.398-.643-.42-1.118h-2.377c.006.64.169 1.222.49 1.743.32.52.767.93 1.342 1.226.575.297 1.214.448 1.917.453zm11.563-.016c1.08.016 2.051-.119 2.912-.405.86-.286 1.514-.693 1.96-1.222l.755-4.657h-4.77l-.334 1.772h2.282l-.42 2.011c-.601.401-1.327.59-2.18.57-.731-.011-1.276-.268-1.634-.77-.357-.502-.507-1.21-.45-2.124.086-1.71.433-3.015 1.042-3.915.61-.9 1.443-1.335 2.5-1.302.613.02 1.073.187 1.382.496.309.31.495.791.558 1.443l2.419.008c-.103-1.24-.524-2.192-1.261-2.857-.738-.665-1.759-1.009-3.063-1.03-.96-.016-1.835.17-2.625.557-.789.387-1.465.972-2.028 1.755-.564.783-.961 1.694-1.193 2.733-.231 1.04-.319 1.944-.261 2.713.051.828.263 1.566.634 2.212.372.647.881 1.142 1.527 1.487.646.345 1.396.52 2.248.525z"/>
    </g>
</svg>
