<svg xmlns="http://www.w3.org/2000/svg" width="48" height="48" viewBox="0 0 48 48">
    <g fill="none" fill-rule="evenodd">
        <path fill="#414148" fill-rule="nonzero" d="M34.667 22.167c1.688 0 3.068 1.321 3.161 2.987l.005.18V44h-1V25.333c0-1.144-.887-2.082-2.012-2.16l-.154-.006H13.333c-1.144 0-2.082.887-2.16 2.012l-.006.154V44h-1V25.333c0-1.688 1.321-3.068 2.987-3.161l.18-.005h21.333z"/>
        <rect width="12" height="1" x="18" y="26.667" fill="#1E2126" rx=".5"/>
        <path fill="#414148" fill-rule="nonzero" d="M19.806 16.575c2.786-1.515 5.515-1.515 8.097.011.317.188.422.597.235.914-.188.317-.597.422-.914.234-2.17-1.283-4.4-1.283-6.781.012-.324.176-.728.056-.904-.267-.176-.324-.057-.728.267-.904zM16.854 12.194c4.752-2.635 9.446-2.635 13.992.007.318.185.426.593.241.911-.185.319-.593.427-.911.242-4.136-2.404-8.33-2.404-12.675.006-.322.179-.728.063-.907-.26-.178-.321-.062-.727.26-.906z"/>
        <path fill="#414148" fill-rule="nonzero" d="M12.84 8.418c7.425-4.34 14.797-4.34 22.015.004.315.19.417.6.227.915-.19.316-.6.418-.915.228-6.797-4.092-13.647-4.092-20.653.004-.318.186-.726.079-.912-.239-.186-.318-.079-.726.239-.912z"/>
    </g>
</svg>
