<svg xmlns="http://www.w3.org/2000/svg" width="48" height="48" viewBox="0 0 48 48">
    <g fill="none" fill-rule="evenodd">
        <path stroke="#414148" stroke-linecap="round" stroke-linejoin="round" d="M14.667 10L14.667 24.213 4 30"/>
        <g fill="#414148">
            <path d="M3.844.005s-6.702 3.47-2.407 12.124L6.6 11.093s-3.615-4.129-2.984-6.49L3.844.006z" transform="translate(10.667 18.667)"/>
            <path d="M2.294 12.058l.765-1.409c.231-.419.701-.652 1.174-.572l2.303.386c.23.04.444.15.61.315L9.18 12.82c.249.244.366.593.322.943l-.38 2.917c-.073.546-.53.963-1.08.979l-4.23.135c-.546.016-1.026-.361-1.136-.898l-.573-4.6" transform="translate(10.667 18.667)"/>
            <path d="M2.861 12.515l.535 4.29c.031.132.19.283.393.26l4.23-.135c.196-.004.356-.15.382-.346l.38-2.913c.015-.124-.027-.25-.114-.34l-2.036-2.038c-.058-.058-.133-.098-.215-.113l-2.303-.382c-.171-.03-.333.053-.415.2l-.766 1.409c-.022.04-.044.073-.07.108zm.915 6.008c-.877 0-1.633-.612-1.81-1.477l-.584-4.657c-.034-.258.075-.5.262-.657.004-.004.008-.011.013-.02l.767-1.41C2.8 9.606 3.567 9.23 4.35 9.357l2.303.386c.386.062.734.242 1.01.52l2.034 2.038c.404.41.599.992.526 1.555l-.38 2.918c-.122.907-.87 1.586-1.779 1.613l-4.23.135h-.058z" transform="translate(10.667 18.667)"/>
            <path d="M5.693 14.064c0 1.34-.763 2.427-1.704 2.427-.94 0-1.703-1.087-1.703-2.427s.763-2.425 1.703-2.425c.941 0 1.704 1.085 1.704 2.425M4.194 2.061c0 1.138-.757 2.061-1.69 2.061C1.566 4.122.81 3.2.81 2.061S1.567 0 2.503 0c.934 0 1.69.923 1.69 2.061" transform="translate(10.667 18.667)"/>
        </g>
        <g fill="#414148">
            <path d="M3.844.005s-6.702 3.47-2.407 12.124L6.6 11.093s-3.615-4.129-2.984-6.49L3.844.006z" transform="matrix(-1 0 0 1 37.333 18.667)"/>
            <path d="M2.294 12.058l.765-1.409c.231-.419.701-.652 1.174-.572l2.303.386c.23.04.444.15.61.315L9.18 12.82c.249.244.366.593.322.943l-.38 2.917c-.073.546-.53.963-1.08.979l-4.23.135c-.546.016-1.026-.361-1.136-.898l-.573-4.6" transform="matrix(-1 0 0 1 37.333 18.667)"/>
            <path d="M2.861 12.515l.535 4.29c.031.132.19.283.393.26l4.23-.135c.196-.004.356-.15.382-.346l.38-2.913c.015-.124-.027-.25-.114-.34l-2.036-2.038c-.058-.058-.133-.098-.215-.113l-2.303-.382c-.171-.03-.333.053-.415.2l-.766 1.409c-.022.04-.044.073-.07.108zm.915 6.008c-.877 0-1.633-.612-1.81-1.477l-.584-4.657c-.034-.258.075-.5.262-.657.004-.004.008-.011.013-.02l.767-1.41C2.8 9.606 3.567 9.23 4.35 9.357l2.303.386c.386.062.734.242 1.01.52l2.034 2.038c.404.41.599.992.526 1.555l-.38 2.918c-.122.907-.87 1.586-1.779 1.613l-4.23.135h-.058z" transform="matrix(-1 0 0 1 37.333 18.667)"/>
            <path d="M5.693 14.064c0 1.34-.763 2.427-1.704 2.427-.94 0-1.703-1.087-1.703-2.427s.763-2.425 1.703-2.425c.941 0 1.704 1.085 1.704 2.425M4.194 2.061c0 1.138-.757 2.061-1.69 2.061C1.566 4.122.81 3.2.81 2.061S1.567 0 2.503 0c.934 0 1.69.923 1.69 2.061" transform="matrix(-1 0 0 1 37.333 18.667)"/>
        </g>
        <path stroke="#414148" stroke-linecap="round" stroke-linejoin="round" d="M44 10L44 24.213 33.333 30" transform="matrix(-1 0 0 1 77.333 0)"/>
    </g>
</svg>
