<svg xmlns="http://www.w3.org/2000/svg" width="48" height="48" viewBox="0 0 48 48">
    <g fill="none" fill-rule="evenodd" transform="translate(-1 -1)">
        <g stroke="#414148">
            <ellipse cx="24.5" cy="25" rx="11" ry="22.5" transform="rotate(45 24.5 25)"/>
            <ellipse cx="24.5" cy="25" rx="11" ry="22.5" transform="rotate(-45 24.5 25)"/>
        </g>
        <path fill="#414148" d="M5.354 8c-.176 0-.327-.134-.345-.312-.006-.05-.116-1.206.628-1.995.469-.496 1.163-.735 2.03-.687.193.01.341.17.333.365-.009.19-.175.353-.364.33-.677-.022-1.168.13-1.492.47-.52.551-.443 1.436-.443 1.444.021.192-.12.363-.31.383C5.38 8 5.368 8 5.355 8M44.646 42c.176 0 .327.134.345.312.006.05.116 1.206-.628 1.995-.469.496-1.163.735-2.03.687-.193-.01-.341-.17-.333-.365.009-.19.175-.353.364-.33.677.022 1.168-.13 1.492-.47.52-.551.443-1.436.443-1.444-.021-.192.12-.363.31-.383.012-.002.024-.002.037-.002M44.648 8l-.016-.001c-.193-.009-.34-.172-.332-.364.03-.668-.128-1.169-.47-1.492-.55-.518-1.437-.442-1.445-.442-.194.02-.364-.119-.383-.31-.02-.192.12-.364.31-.382.05-.005 1.205-.117 1.995.627.497.469.728 1.15.689 2.031-.009.186-.163.333-.348.333M5.352 42l.016.001c.193.009.34.172.332.364-.03.668.128 1.169.47 1.492.55.518 1.437.442 1.445.442.194-.02.364.119.383.31.02.192-.12.364-.31.382-.05.005-1.205.117-1.995-.627-.497-.469-.728-1.15-.689-2.031.009-.186.163-.333.348-.333"/>
        <circle cx="25" cy="25" r="3" fill="#414148"/>
    </g>
</svg>
